<?xml version="1.0" standalone="no"?>
<!DOCTYPE svg PUBLIC "-//W3C//DTD SVG 20010904//EN"
 "http://www.w3.org/TR/2001/REC-SVG-20010904/DTD/svg10.dtd">
<svg version="1.0" xmlns="http://www.w3.org/2000/svg"
 width="742.000000pt" height="864.000000pt" viewBox="0 0 742.000000 864.000000"
 preserveAspectRatio="xMidYMid meet">

<g transform="translate(0.000000,864.000000) scale(0.100000,-0.100000)"
fill="#000000" stroke="none">
<path d="M3553 8353 c15 -2 37 -2 50 0 12 2 0 4 -28 4 -27 0 -38 -2 -22 -4z"/>
<path d="M3703 8343 c9 -2 25 -2 35 0 9 3 1 5 -18 5 -19 0 -27 -2 -17 -5z"/>
<path d="M3823 8323 c9 -2 23 -2 30 0 6 3 -1 5 -18 5 -16 0 -22 -2 -12 -5z"/>
<path d="M3908 8313 c6 -2 18 -2 25 0 6 3 1 5 -13 5 -14 0 -19 -2 -12 -5z"/>
<path d="M3998 8293 c6 -2 18 -2 25 0 6 3 1 5 -13 5 -14 0 -19 -2 -12 -5z"/>
<path d="M4068 8283 c6 -2 18 -2 25 0 6 3 1 5 -13 5 -14 0 -19 -2 -12 -5z"/>
<path d="M4148 8263 c7 -3 16 -2 19 1 4 3 -2 6 -13 5 -11 0 -14 -3 -6 -6z"/>
<path d="M4208 8253 c7 -3 16 -2 19 1 4 3 -2 6 -13 5 -11 0 -14 -3 -6 -6z"/>
<path d="M4268 8233 c7 -3 16 -2 19 1 4 3 -2 6 -13 5 -11 0 -14 -3 -6 -6z"/>
<path d="M4318 8223 c7 -3 16 -2 19 1 4 3 -2 6 -13 5 -11 0 -14 -3 -6 -6z"/>
<path d="M5297 7809 c7 -7 15 -10 18 -7 3 3 -2 9 -12 12 -14 6 -15 5 -6 -5z"/>
<path d="M5957 7329 c7 -7 15 -10 18 -7 3 3 -2 9 -12 12 -14 6 -15 5 -6 -5z"/>
<path d="M5980 7306 c0 -2 7 -7 16 -10 8 -3 12 -2 9 4 -6 10 -25 14 -25 6z"/>
<path d="M6276 7017 c3 -10 9 -15 12 -12 3 3 0 11 -7 18 -10 9 -11 8 -5 -6z"/>
<path d="M6630 6571 c0 -6 4 -13 10 -16 6 -3 7 1 4 9 -7 18 -14 21 -14 7z"/>
<path d="M3385 6464 c-159 -24 -405 -62 -545 -83 -140 -22 -276 -43 -302 -47
-27 -3 -48 -11 -48 -16 0 -7 18 -8 48 -4 26 4 70 8 97 10 59 4 136 15 380 54
594 95 725 118 725 125 0 12 -57 6 -355 -39z"/>
<path d="M4835 6413 c-44 -7 -168 -27 -275 -44 -231 -36 -684 -110 -895 -145
-82 -14 -179 -29 -215 -34 -116 -16 -366 -58 -458 -76 -30 -6 -61 -72 -40 -85
7 -5 24 -9 36 -9 37 0 20 -25 -18 -26 -40 0 -51 -20 -45 -79 3 -22 9 -305 15
-630 5 -324 15 -801 21 -1060 6 -258 19 -857 28 -1330 12 -592 21 -866 28
-881 7 -11 30 -33 51 -48 39 -27 41 -27 89 -12 26 8 73 24 103 36 30 11 71 27
90 34 229 85 1028 391 1275 488 100 39 100 39 200 33 55 -4 208 -12 340 -19
217 -11 245 -10 293 5 47 15 58 15 114 2 91 -21 108 -11 108 64 0 73 10 88 52
85 30 -3 65 9 219 75 35 15 37 20 57 102 35 144 44 213 39 317 -2 54 -6 108
-8 118 -3 13 4 24 21 33 61 31 260 122 315 142 33 12 83 31 110 42 28 10 58
19 66 19 32 0 110 71 131 119 20 43 21 64 21 341 1 250 -2 303 -17 350 -25 81
-93 150 -148 150 -16 0 -28 4 -28 10 0 21 -63 40 -150 47 -76 5 -90 4 -90 -9
0 -9 -16 -20 -39 -26 -31 -10 -47 -9 -81 3 -23 8 -53 15 -66 15 -12 0 -26 5
-29 10 -4 6 -11 8 -16 5 -23 -15 -6 16 20 34 27 19 49 70 42 95 -5 22 10 58
23 53 9 -4 16 3 20 16 3 12 1 24 -4 25 -16 6 -12 52 4 52 20 0 28 42 11 60 -8
9 -15 33 -15 54 0 48 -14 39 -30 -19 -14 -49 -40 -62 -40 -19 0 19 -4 25 -15
20 -11 -4 -15 1 -15 19 0 16 6 25 16 25 10 0 14 -6 10 -15 -3 -8 -2 -15 2 -15
4 0 15 21 25 47 17 45 17 47 -3 68 -19 20 -20 34 -20 247 0 188 -3 229 -15
242 -19 18 -19 27 -1 20 9 -3 17 9 26 40 11 40 10 47 -4 62 -13 13 -15 19 -5
28 8 8 13 8 16 -2 3 -6 9 -10 14 -6 12 7 12 114 -1 114 -5 0 -10 -7 -10 -15 0
-8 -4 -15 -10 -15 -5 0 -10 9 -10 20 0 11 7 20 15 20 18 0 20 32 4 63 -18 34
-44 55 -91 73 -24 9 -50 25 -60 35 -21 24 -26 24 -46 -1 -24 -30 -134 -37
-224 -16 -37 8 -74 13 -83 10 -8 -4 -23 -3 -32 1 -16 6 -16 8 3 15 19 8 21 15
19 68 -4 97 -6 99 -132 96 -59 -2 -177 -6 -260 -9 -150 -7 -181 -1 -130 22 21
10 25 21 30 78 7 76 -4 107 -56 163 -36 37 -58 39 -192 15z m215 -83 c0 -24
-15 -26 -24 -4 -9 23 -21 8 -21 -24 0 -17 -5 -27 -15 -27 -23 0 -23 28 0 53
26 28 60 29 60 2z m10 -43 c0 -19 -27 -53 -36 -44 -8 8 15 57 28 57 4 0 8 -6
8 -13z m-72 -124 c-27 -2 -69 -2 -95 0 -27 2 -5 3 47 3 52 0 74 -1 48 -3z
m-830 -15 c-5 -15 -48 -24 -48 -10 0 14 12 22 33 22 10 0 17 -5 15 -12z m-363
-68 c3 -5 2 -10 -4 -10 -5 0 -11 -14 -13 -32 -3 -31 -28 -54 -28 -25 0 8 -7
20 -15 27 -11 9 -12 17 -4 31 10 20 53 26 64 9z m-598 -52 c6 -7 13 -26 17
-42 6 -26 5 -28 -8 -17 -9 8 -16 23 -16 34 0 17 -2 19 -12 8 -12 -11 -19 -101
-8 -101 3 0 14 10 25 23 18 20 20 20 23 4 5 -26 -26 -57 -58 -57 -30 0 -49 28
-29 41 9 5 8 12 -4 24 -23 23 -21 34 10 67 29 31 45 35 60 16z m613 -7 c0 -6
-4 -13 -10 -16 -5 -3 -10 1 -10 9 0 9 5 16 10 16 6 0 10 -4 10 -9z m1734 -158
c-13 -38 -24 -70 -24 -73 0 -3 -4 0 -8 7 -5 8 -24 10 -64 4 -52 -7 -56 -6 -47
10 16 31 134 115 166 119 1 0 -9 -30 -23 -67z m510 -18 c3 -9 0 -15 -9 -15 -8
0 -15 7 -15 15 0 8 4 15 9 15 5 0 11 -7 15 -15z m-337 -76 c-6 -71 -20 -99
-46 -92 -38 10 -50 101 -19 140 5 7 23 11 40 10 l30 -2 -5 -56z m263 14 c0
-15 -6 -23 -16 -23 -11 0 -15 6 -11 20 3 11 1 20 -4 20 -5 0 -9 7 -9 15 0 13
3 13 20 3 11 -7 20 -23 20 -35z m-20 -102 c0 -25 -3 -28 -21 -24 -20 6 -20 7
-5 18 9 7 16 17 16 24 0 6 2 11 5 11 3 0 5 -13 5 -29z m-150 -40 c0 -37 -13
-61 -23 -44 -7 13 5 83 14 83 5 0 9 -18 9 -39z m-548 -36 c-2 -14 -8 -28 -13
-31 -10 -6 -11 2 -3 34 9 30 22 28 16 -3z m786 -2 c-2 -9 -8 -18 -15 -20 -7
-3 -9 3 -6 16 6 25 26 28 21 4z m-71 -55 c-3 -8 -6 -5 -6 6 -1 11 2 17 5 13 3
-3 4 -12 1 -19z m3 -88 c0 -11 -4 -20 -10 -20 -5 0 -10 9 -10 20 0 11 5 20 10
20 6 0 10 -9 10 -20z m-2874 -72 c-6 -29 -20 -47 -38 -48 -8 0 10 46 25 68 16
20 20 14 13 -20z m2859 -8 c24 -47 20 -110 -10 -143 -14 -15 -30 -27 -35 -27
-21 0 -52 42 -46 63 3 11 1 28 -5 38 -13 25 5 65 38 83 38 21 40 20 58 -14z
m-2251 -4 c3 -13 -1 -40 -9 -60 -19 -45 -20 -65 -3 -48 30 30 32 -4 5 -70 -17
-40 -38 -36 -32 5 5 30 5 31 -6 7 -23 -51 -27 -55 -55 -55 l-29 0 2 61 c1 66
19 112 61 157 32 33 58 35 66 3z m-231 -96 c3 -14 -1 -24 -15 -31 -15 -8 -17
-13 -8 -19 20 -12 2 -29 -27 -26 -34 4 -43 26 -11 27 l23 0 -22 11 c-35 17
-29 46 10 51 17 2 35 5 38 5 4 1 9 -7 12 -18z m403 -195 c-6 -38 -14 -50 -53
-80 -48 -37 -71 -42 -104 -25 -31 17 -22 26 20 22 51 -5 88 21 97 67 7 33 33
75 42 66 3 -2 1 -25 -2 -50z m-246 -11 c0 -22 -4 -25 -27 -22 -36 4 -43 35
-11 47 30 11 38 6 38 -25z m2424 -71 c-1 -34 -18 -33 -22 2 -2 16 2 25 10 25
9 0 13 -10 12 -27z m-2589 -33 c8 -13 -12 -40 -29 -40 -22 0 -39 18 -33 34 7
18 52 22 62 6z m2525 -2 c0 -7 -4 -19 -9 -27 -11 -17 -25 3 -17 24 7 18 26 20
26 3z m15 -58 c-4 -12 -9 -19 -12 -17 -3 3 -2 15 2 27 4 12 9 19 12 17 3 -3 2
-15 -2 -27z m-2555 -4 c0 -10 -7 -12 -22 -8 -21 5 -21 6 -2 13 10 4 20 8 22 8
1 1 2 -5 2 -13z m2514 -32 c17 -7 21 -31 8 -52 -14 -22 -42 -2 -42 29 0 30 6
34 34 23z m12 -109 c7 -30 -1 -55 -18 -55 -11 0 -16 39 -10 73 4 17 22 5 28
-18z m32 -90 c2 -23 0 -25 -20 -14 -21 11 -21 12 -3 25 10 8 19 14 20 14 0 0
2 -11 3 -25z m52 -14 c0 -17 -5 -33 -11 -36 -17 -11 -23 3 -9 20 8 10 9 15 1
15 -6 0 -11 7 -11 15 0 8 7 15 15 15 10 0 15 -10 15 -29z m-46 -138 c6 -18 4
-20 -14 -16 -19 5 -27 32 -13 47 9 8 19 -3 27 -31z m-1727 -75 c35 -17 68 -37
75 -46 8 -9 -7 -5 -37 10 -45 23 -114 55 -155 72 -8 3 1 3 20 0 19 -3 63 -20
97 -36z m-250 -4 c-3 -3 -12 -4 -19 -1 -8 3 -5 6 6 6 11 1 17 -2 13 -5z m147
-55 c31 -17 56 -32 56 -34 0 -5 -14 1 -90 37 -30 14 -62 28 -70 32 -8 3 -1 3
17 0 18 -3 57 -19 87 -35z m1097 -194 c45 -90 88 -239 60 -210 -5 6 -24 53
-44 105 -19 52 -47 117 -61 144 -14 27 -26 54 -26 60 1 19 39 -36 71 -99z
m1329 -79 c0 -24 -6 -48 -12 -53 -7 -5 -44 -20 -83 -32 -38 -12 -75 -27 -82
-33 -15 -12 -19 -323 -4 -332 4 -3 43 6 85 21 66 22 79 24 87 12 13 -20 11
-55 -3 -67 -12 -9 -221 -83 -224 -79 0 1 3 40 7 87 4 47 8 158 8 247 1 156 0
162 -21 177 -12 9 -20 17 -17 19 2 2 42 16 89 32 47 15 92 32 100 36 8 5 27 9
43 9 25 0 27 -3 27 -44z m-589 -12 c10 -12 8 -90 -3 -98 -1 -2 -22 -6 -45 -10
-36 -5 -44 -3 -54 15 -6 13 -8 39 -4 64 l6 43 44 0 c26 0 49 -6 56 -14z m-7
-156 c36 -51 9 -128 -44 -128 -35 0 -60 31 -60 75 0 44 25 75 60 75 18 0 34
-8 44 -22z m-704 -79 c0 -24 -23 -21 -28 4 -2 10 3 17 12 17 10 0 16 -9 16
-21z m10 -49 c0 -5 -7 -7 -15 -4 -8 4 -15 8 -15 10 0 2 7 4 15 4 8 0 15 -4 15
-10z m700 -46 c0 -11 -9 -29 -20 -39 -11 -10 -20 -22 -20 -27 0 -5 9 -6 20 -3
17 5 20 2 20 -24 0 -17 -4 -31 -10 -31 -5 0 -10 5 -10 10 0 6 -18 10 -40 10
-47 0 -51 13 -15 54 32 37 31 39 -5 31 -27 -6 -30 -4 -30 17 0 23 4 24 55 24
49 -1 55 -3 55 -22z m-700 -65 c0 -6 -4 -7 -10 -4 -5 3 -10 11 -10 16 0 6 5 7
10 4 6 -3 10 -11 10 -16z m-10 -79 c0 -5 -4 -10 -10 -10 -5 0 -10 5 -10 10 0
6 5 10 10 10 6 0 10 -4 10 -10z m710 -20 c0 -17 -7 -33 -17 -40 -17 -10 -17
-10 0 -20 14 -9 26 -60 13 -60 -3 0 -18 14 -35 31 -24 24 -35 28 -45 20 -16
-14 -26 -4 -26 27 0 21 4 23 24 18 19 -5 30 0 48 23 29 38 38 38 38 1z m-725
-20 c3 -5 1 -10 -4 -10 -6 0 -11 5 -11 10 0 6 2 10 4 10 3 0 8 -4 11 -10z
m-1357 -438 c-18 -8 -106 31 -143 62 l-40 34 95 -46 c52 -26 92 -48 88 -50z
m1650 -108 c12 -8 22 -22 22 -30 0 -11 -7 -9 -30 8 -42 31 -61 12 -31 -31 25
-35 33 -37 55 -15 15 14 16 12 12 -28 -3 -24 -5 -45 -5 -47 -1 -3 -12 6 -25
18 -20 19 -28 21 -45 12 -17 -9 -21 -9 -21 3 0 8 6 16 13 19 10 3 10 9 0 26
-14 22 -17 63 -6 74 11 12 37 8 61 -9z m-1881 -16 c7 -6 47 -25 90 -44 85 -37
81 -47 -5 -14 -66 25 -175 95 -114 73 9 -3 22 -10 29 -15z m2163 -33 c0 -16
-4 -37 -9 -44 -8 -12 -12 -10 -22 12 -9 21 -9 33 1 57 15 36 30 24 30 -25z
m-460 3 c0 -6 -6 -5 -15 2 -8 7 -15 14 -15 16 0 2 7 1 15 -2 8 -4 15 -11 15
-16z m30 -14 c0 -8 -5 -12 -10 -9 -6 4 -8 11 -5 16 9 14 15 11 15 -7z m-194
-229 c44 -9 105 -20 137 -27 61 -12 72 -24 31 -34 -46 -12 -314 42 -322 64 -5
17 58 15 154 -3z m-2110 -164 c-10 -9 -16 -11 -16 -4 0 7 5 15 10 18 6 3 11
25 12 48 l1 42 4 -44 c3 -31 0 -49 -11 -60z m736 44 c4 -16 1 -25 -8 -25 -17
0 -27 17 -20 35 8 23 23 18 28 -10z m-592 -474 c25 -48 -9 -131 -55 -131 -29
0 -45 25 -45 72 0 63 74 106 100 59z"/>
<path d="M5945 4070 c-8 -26 4 -48 16 -29 12 19 11 49 0 49 -5 0 -12 -9 -16
-20z"/>
<path d="M6000 4048 c0 -25 3 -29 10 -18 13 20 13 50 0 50 -5 0 -10 -15 -10
-32z"/>
<path d="M5945 3911 c-9 -31 5 -52 33 -49 33 4 50 31 33 52 -18 22 -58 20 -66
-3z"/>
<path d="M3236 2138 c-18 -26 -21 -64 -5 -73 19 -12 50 27 47 59 -4 37 -22 44
-42 14z"/>
<path d="M6780 6331 c0 -6 4 -13 10 -16 6 -3 7 1 4 9 -7 18 -14 21 -14 7z"/>
<path d="M2303 6293 c-25 -10 -14 -33 16 -33 37 0 48 15 22 29 -11 6 -21 11
-23 10 -2 0 -9 -3 -15 -6z"/>
<path d="M2065 6269 c-356 -57 -347 -54 -379 -109 -19 -32 -21 -55 -24 -247
-3 -179 -1 -218 12 -244 12 -24 16 -62 16 -153 0 -67 -4 -127 -9 -135 -7 -11
-22 -12 -72 -6 -35 5 -77 10 -94 12 -45 5 -208 24 -225 27 -8 1 -41 6 -72 10
-62 9 -66 14 -44 49 8 12 17 32 20 44 6 20 4 22 -41 21 -26 0 -54 1 -62 3 -27
7 -171 -209 -194 -291 -5 -21 48 -37 101 -29 29 4 41 2 38 -5 -17 -41 -56
-171 -67 -221 -7 -33 -17 -69 -22 -80 -16 -32 -37 -170 -27 -173 11 -4 13 -55
4 -89 -4 -14 -14 -23 -25 -23 -13 0 -19 -7 -19 -23 0 -30 -9 -38 -29 -28 -9 5
-40 5 -68 2 -34 -5 -54 -4 -57 3 -2 6 -5 -42 -5 -106 -1 -101 1 -117 14 -112
8 4 21 2 28 -3 17 -14 71 -23 84 -15 6 4 12 16 15 27 3 18 11 20 83 18 44 -1
134 -9 200 -17 66 -8 188 -22 270 -31 83 -9 175 -20 205 -23 l55 -7 12 -150
c6 -83 16 -172 21 -200 6 -27 13 -165 17 -305 5 -169 12 -270 21 -300 8 -26
18 -134 24 -260 5 -118 12 -246 15 -283 4 -46 2 -73 -5 -82 -9 -10 -11 -75 -8
-227 3 -235 4 -238 72 -284 34 -23 106 -34 106 -15 0 5 -14 14 -30 21 -51 21
-57 45 -64 285 -10 335 -24 805 -36 1160 -6 176 -19 653 -30 1060 -11 407 -25
885 -31 1063 -14 422 -28 397 234 431 177 24 217 33 217 51 0 12 2 12 -145
-11z m-365 -1599 c0 -36 -3 -82 -7 -104 l-6 -38 -66 6 c-122 12 -405 56 -464
71 -32 8 -60 15 -62 15 -3 0 -5 4 -5 9 0 36 580 148 602 116 4 -5 8 -39 8 -75z"/>
<path d="M2585 6281 c-3 -5 -1 -12 5 -16 5 -3 10 1 10 9 0 18 -6 21 -15 7z"/>
<path d="M2527 6274 c-13 -13 -7 -24 14 -24 11 0 19 5 17 12 -5 14 -22 21 -31
12z"/>
<path d="M3100 6221 c0 -13 25 -20 50 -14 16 4 18 8 8 14 -17 11 -58 11 -58 0z"/>
<path d="M3400 6219 c0 -5 5 -7 10 -4 6 3 10 8 10 11 0 2 -4 4 -10 4 -5 0 -10
-5 -10 -11z"/>
<path d="M3330 6210 c0 -5 9 -10 20 -10 11 0 20 5 20 10 0 6 -9 10 -20 10 -11
0 -20 -4 -20 -10z"/>
<path d="M5688 6000 c14 -6 44 -6 75 -1 l52 9 -75 0 c-55 1 -69 -2 -52 -8z"/>
<path d="M7201 5344 c0 -11 3 -14 6 -6 3 7 2 16 -1 19 -3 4 -6 -2 -5 -13z"/>
<path d="M7211 5294 c0 -11 3 -14 6 -6 3 7 2 16 -1 19 -3 4 -6 -2 -5 -13z"/>
<path d="M7231 5234 c0 -11 3 -14 6 -6 3 7 2 16 -1 19 -3 4 -6 -2 -5 -13z"/>
<path d="M7241 5174 c0 -11 3 -14 6 -6 3 7 2 16 -1 19 -3 4 -6 -2 -5 -13z"/>
<path d="M7262 5100 c0 -14 2 -19 5 -12 2 6 2 18 0 25 -3 6 -5 1 -5 -13z"/>
<path d="M7272 5030 c0 -14 2 -19 5 -12 2 6 2 18 0 25 -3 6 -5 1 -5 -13z"/>
<path d="M7292 4940 c0 -14 2 -19 5 -12 2 6 2 18 0 25 -3 6 -5 1 -5 -13z"/>
<path d="M7302 4855 c0 -16 2 -22 5 -12 2 9 2 23 0 30 -3 6 -5 -1 -5 -18z"/>
<path d="M7323 4735 c0 -22 2 -30 4 -17 2 12 2 30 0 40 -3 9 -5 -1 -4 -23z"/>
<path d="M7333 4595 c0 -27 2 -38 4 -22 2 15 2 37 0 50 -2 12 -4 0 -4 -28z"/>
<path d="M7354 4240 c0 -85 2 -120 3 -77 2 42 2 112 0 155 -1 42 -3 7 -3 -78z"/>
<path d="M7333 3885 c0 -27 2 -38 4 -22 2 15 2 37 0 50 -2 12 -4 0 -4 -28z"/>
<path d="M7323 3745 c0 -22 2 -30 4 -17 2 12 2 30 0 40 -3 9 -5 -1 -4 -23z"/>
<path d="M990 3631 c0 -11 4 -22 9 -25 4 -3 6 6 3 19 -5 30 -12 33 -12 6z"/>
<path d="M7302 3625 c0 -16 2 -22 5 -12 2 9 2 23 0 30 -3 6 -5 -1 -5 -18z"/>
<path d="M7292 3540 c0 -14 2 -19 5 -12 2 6 2 18 0 25 -3 6 -5 1 -5 -13z"/>
<path d="M7272 3450 c0 -14 2 -19 5 -12 2 6 2 18 0 25 -3 6 -5 1 -5 -13z"/>
<path d="M7262 3380 c0 -14 2 -19 5 -12 2 6 2 18 0 25 -3 6 -5 1 -5 -13z"/>
<path d="M7241 3304 c0 -11 3 -14 6 -6 3 7 2 16 -1 19 -3 4 -6 -2 -5 -13z"/>
<path d="M7231 3244 c0 -11 3 -14 6 -6 3 7 2 16 -1 19 -3 4 -6 -2 -5 -13z"/>
<path d="M7211 3184 c0 -11 3 -14 6 -6 3 7 2 16 -1 19 -3 4 -6 -2 -5 -13z"/>
<path d="M7201 3134 c0 -11 3 -14 6 -6 3 7 2 16 -1 19 -3 4 -6 -2 -5 -13z"/>
<path d="M6785 2159 c-4 -6 -5 -12 -2 -15 2 -3 7 2 10 11 7 17 1 20 -8 4z"/>
<path d="M5990 1180 c-9 -6 -10 -10 -3 -10 6 0 15 5 18 10 8 12 4 12 -15 0z"/>
<path d="M5295 670 c-3 -6 1 -7 9 -4 18 7 21 14 7 14 -6 0 -13 -4 -16 -10z"/>
<path d="M4318 253 c7 -3 16 -2 19 1 4 3 -2 6 -13 5 -11 0 -14 -3 -6 -6z"/>
<path d="M4268 243 c7 -3 16 -2 19 1 4 3 -2 6 -13 5 -11 0 -14 -3 -6 -6z"/>
<path d="M4208 223 c7 -3 16 -2 19 1 4 3 -2 6 -13 5 -11 0 -14 -3 -6 -6z"/>
<path d="M4148 213 c7 -3 16 -2 19 1 4 3 -2 6 -13 5 -11 0 -14 -3 -6 -6z"/>
<path d="M4068 193 c6 -2 18 -2 25 0 6 3 1 5 -13 5 -14 0 -19 -2 -12 -5z"/>
<path d="M3998 183 c6 -2 18 -2 25 0 6 3 1 5 -13 5 -14 0 -19 -2 -12 -5z"/>
<path d="M3908 163 c6 -2 18 -2 25 0 6 3 1 5 -13 5 -14 0 -19 -2 -12 -5z"/>
<path d="M3823 153 c9 -2 23 -2 30 0 6 3 -1 5 -18 5 -16 0 -22 -2 -12 -5z"/>
<path d="M3703 133 c9 -2 25 -2 35 0 9 3 1 5 -18 5 -19 0 -27 -2 -17 -5z"/>
<path d="M3553 123 c15 -2 37 -2 50 0 12 2 0 4 -28 4 -27 0 -38 -2 -22 -4z"/>
</g>
</svg>
